<?xml version="1.0" encoding="UTF-8"?>
<svg id="Layer_1" data-name="Layer 1" xmlns="http://www.w3.org/2000/svg" viewBox="0 0 509.74 45.6">
  <defs>
    <style>
      .cls-1 {
        fill: none;
        stroke: #B7190C;
        stroke-linecap: round;
        stroke-width: 3px;
      }

      .cls-2 {
        isolation: isolate;
      }

      .cls-3 {
        fill: #B7190C;
      }
    </style>
  </defs>
  <g id="the_modern_science_o_copy" data-name="the modern science o copy">
    <g id="dianetics">
      <path id="Subtraction_1" data-name="Subtraction 1" class="cls-3" d="M65.04,44.65h-7.1V1.45h7.1c1.8-.09,3.6.19,5.3.8,1.6.8,2.4,2.3,2.4,4.5v32.7c0,2.1-.6,3.5-1.9,4.3-1.1.6-3,.9-5.8.9ZM62.94,3.65v38.7h1.6c2.1,0,3.2-.9,3.2-2.6V6.25c.1-.75-.12-1.51-.6-2.1-.85-.37-1.77-.54-2.7-.5,0,0-1.5,0-1.5,0Z"/>
      <path id="Subtraction_2" data-name="Subtraction 2" class="cls-3" d="M102.94,44.65h-5v-21.4h-4.8v21.5h-5V6.35c0-2.2.8-3.7,2.2-4.5,1.63-.61,3.36-.89,5.1-.8,1.77-.09,3.54.19,5.2.8,1.6.8,2.3,2.3,2.3,4.5v38.3ZM95.54,3.25c-1.5,0-2.3.9-2.3,2.7v14.7h4.7V5.98c.09-.77-.09-1.54-.5-2.2-.53-.43-1.22-.62-1.9-.53Z"/>
      <path id="Path" class="cls-3" d="M77.14,44.65h5V1.45h-5v43.2Z"/>
      <path id="Path-2" class="cls-3" d="M118.14,44.65h4.9V1.45h-4.9l.5,23.4-6.4-23.4h-4.1v43.3h5l-.7-29.5,5.6,20.3v9.1h.1,0Z"/>
      <path id="Path-3" class="cls-3" d="M128.14,44.65h11.5v-2.67h-6.5v-18.73h5.7v-2.6h-5.7V4.15h6.1V1.45h-11.1s0,43.2,0,43.2Z"/>
      <path id="Path-4" class="cls-3" d="M150.64,4.15h5V1.45h-15v2.7h5v40.6h5V4.15Z"/>
      <path id="Path-5" class="cls-3" d="M157.74,44.65h5V1.45h-5v43.2Z"/>
      <path id="Path-6" class="cls-3" d="M174.44,45.15c2.6,0,4.5-.4,5.7-1.2,1.26-.97,1.94-2.52,1.8-4.1v-9.87h-5v10.4c.09.71-.09,1.42-.5,2-.5.49-1.21.71-1.9.6-.72.1-1.45-.12-2-.6-.29-.63-.42-1.31-.4-2V5.98c0-1.8.8-2.7,2.3-2.7.75-.11,1.52.11,2.1.6.29.63.42,1.31.4,2v9.4h5V6.35c0-2.2-.8-3.7-2.3-4.5-1.66-.61-3.43-.89-5.2-.8-1.74-.09-3.47.19-5.1.8-1.5.8-2.2,2.3-2.2,4.5v33.5c0,2.1.7,3.6,2.2,4.4,1.6.7,3.35,1.01,5.1.9h0Z"/>
      <path id="Path-7" class="cls-3" d="M193.24,45.15c2.6,0,4.5-.4,5.7-1.2,1.27-.96,1.95-2.51,1.8-4.1v-8.1c-.1-3.03-1.19-5.95-3.1-8.3l-5.4-7.6c-.22-.35-.42-.72-.6-1.1-.2-.28-.37-.58-.5-.9-.29-.76-.4-1.59-.3-2.4v-5.47c-.09-.74.09-1.48.5-2.1.58-.41,1.29-.59,2-.5.74-.08,1.47.18,2,.7.33.61.47,1.31.4,2v9.2h5V6.35c0-2.2-.8-3.7-2.3-4.5-1.63-.61-3.36-.89-5.1-.8-1.77-.14-3.55.14-5.2.8-1.5.8-2.3,2.3-2.3,4.5v5.63c0,1.9,1.1,4.5,3.3,7.7l3.9,5.6c1.74,1.99,2.67,4.56,2.6,7.2v7.9c.1.78-.12,1.57-.6,2.2-.54.33-1.17.47-1.8.4-.69.07-1.39-.07-2-.4-.33-.68-.47-1.44-.4-2.2v-10.53h-5v9.9c0,3.6,2.4,5.4,7.4,5.4h0Z"/>
    </g>
    <line id="Line_34" data-name="Line 34" class="cls-1" x1="213.34" y1="1.5" x2="213.34" y2="44.1"/>
    <g class="cls-2">
      <path class="cls-3" d="M231.24,3.6h-5.89v-1.2h13v1.2h-5.9v15.6h-1.2V3.6h-.01,0Z"/>
      <path class="cls-3" d="M242.24,2.4h1.2v7.8h10.8V2.4h1.2v16.8h-1.2v-7.9h-10.8v7.9h-1.2s0-16.8,0-16.8Z"/>
      <path class="cls-3" d="M260.54,2.4h12v1.2h-10.7v6.6h9.6v1.2h-9.6v6.7h10.8v1.1h-12.1V2.4h0Z"/>
      <path class="cls-3" d="M284.14,2.4h1.21l6.7,9.9,6.7-9.9h1.2v16.8h-1.2V4.6l-6.6,9.7h-.2l-6.6-9.7v14.6h-1.2V2.4h0Z"/>
      <path class="cls-3" d="M304.35,10.8h0c-.13-4.68,3.56-8.57,8.24-8.7h.26c4.62-.02,8.38,3.7,8.4,8.32v.28h0c.13,4.68-3.56,8.57-8.24,8.7h-.26c-5.11.1-8.4-4-8.4-8.6ZM319.95,10.8h0c0-4.2-3-7.6-7.2-7.6s-7.1,3.4-7.1,7.5h0c0,4.2,3,7.6,7.2,7.6s7.09-3.32,7.09-7.5h.01Z"/>
      <path class="cls-3" d="M325.54,2.4h5.6c5.3,0,8.9,3.6,8.9,8.4h0c0,4.7-3.6,8.4-8.9,8.4h-5.6V2.4ZM326.84,3.6v14.5h4.3c4.7,0,7.6-3.2,7.6-7.2h0c0-4-3-7.2-7.6-7.2h-4.3v-.1Z"/>
      <path class="cls-3" d="M344.44,2.4h12v1.2h-10.7v6.6h9.61v1.2h-9.6v6.7h10.8v1.1h-12.1V2.4h0Z"/>
      <path class="cls-3" d="M360.64,2.4h7.1c1.74-.13,3.45.49,4.7,1.7.83.82,1.3,1.94,1.3,3.1h0c0,2.8-2.1,4.4-4.9,4.8l5.5,7.2h-1.6l-5.4-7h-5.4v7h-1.2V2.4s-.1,0-.1,0ZM367.54,11.1c2.8,0,4.9-1.4,4.9-3.8h0c0-2.3-1.8-3.7-4.8-3.7h-5.7v7.6h5.6v-.1Z"/>
      <path class="cls-3" d="M378.14,2.4h1.21l11.59,14.58V2.4h1.2v16.8h-.9l-11.89-14.9v14.9h-1.2V2.4h0Z"/>
      <path class="cls-3" d="M403.44,16.8l.8-.9c1.57,1.63,3.74,2.53,6,2.5,2.5,0,4.2-1.4,4.2-3.3h0c0-1.8-.9-2.8-4.8-3.6s-5.7-2.2-5.7-4.7h0c0-2.5,2.3-4.4,5.4-4.4,2.11-.04,4.17.67,5.8,2l-.8,1c-1.36-1.26-3.15-1.94-5-1.9-2.5,0-4.1,1.4-4.1,3.2h0c0,1.8.9,2.9,4.9,3.7s5.5,2.2,5.5,4.6h0c0,2.7-2.3,4.6-5.6,4.6-2.46-.14-4.79-1.13-6.6-2.8h0Z"/>
      <path class="cls-3" d="M419.24,10.8h0c-.14-4.66,3.53-8.56,8.2-8.7h.2c2.45-.06,4.81.92,6.5,2.7l-.9.9c-1.47-1.59-3.54-2.49-5.7-2.5-3.99.06-7.17,3.35-7.1,7.33v.17h0c-.16,4.03,2.98,7.44,7.01,7.6h.09c2.22.01,4.33-.94,5.8-2.6l.8.8c-1.7,1.9-4.15,2.96-6.7,2.9-4.6.1-8.2-3.7-8.2-8.6h0Z"/>
      <path class="cls-3" d="M438.04,2.4h1.2v16.8h-1.2s0-16.8,0-16.8Z"/>
      <path class="cls-3" d="M444.54,2.4h12v1.2h-10.7v6.6h9.6v1.2h-9.6v6.7h10.8v1.1h-12.1V2.4h0Z"/>
      <path class="cls-3" d="M460.74,2.4h1.2l11.6,14.58V2.4h1.2v16.8h-.9l-11.9-14.9v14.9h-1.2V2.4h0Z"/>
      <path class="cls-3" d="M479.04,10.8h0c-.14-4.66,3.53-8.56,8.2-8.7h.2c2.45-.06,4.81.92,6.5,2.7l-.9.9c-1.43-1.59-3.46-2.49-5.6-2.5-3.99.06-7.17,3.35-7.1,7.33v.17h0c-.16,4.03,2.98,7.44,7.01,7.6h.09c2.22.01,4.33-.94,5.8-2.6l.8.8c-1.7,1.9-4.15,2.96-6.7,2.9-4.7.1-8.3-3.7-8.3-8.6h0Z"/>
      <path class="cls-3" d="M497.64,2.4h12v1.2h-10.7v6.6h9.6v1.2h-9.6v6.7h10.8v1.1h-12.1s0-16.8,0-16.8Z"/>
    </g>
    <g class="cls-2">
      <path class="cls-3" d="M225.84,31.8h0c-.13-4.68,3.56-8.57,8.24-8.7h.26c4.62-.02,8.38,3.7,8.4,8.32v.28h0c.13,4.68-3.56,8.57-8.24,8.7h-.26c-4.59.05-8.35-3.63-8.4-8.21v-.39ZM241.44,31.8h0c0-4.2-3-7.6-7.2-7.6s-7.1,3.4-7.1,7.5h0c0,4.2,3,7.6,7.2,7.6s7.1-3.32,7.1-7.5h0Z"/>
      <path class="cls-3" d="M247.04,23.4h11.9v1.2h-10.59v6.9h9.5v1.2h-9.5v7.5h-1.2v-16.8s-.11,0-.11,0Z"/>
      <path class="cls-3" d="M270.24,23.4h1.2l6.7,9.9,6.7-9.9h1.2v16.8h-1.2v-14.6l-6.6,9.7h-.1l-6.6-9.7v14.6h-1.19v-16.8h-.11Z"/>
      <path class="cls-3" d="M291.24,23.4h12v1.2h-10.7v6.6h9.6v1.2h-9.6v6.7h10.81v1.1h-12.1v-16.8h0Z"/>
      <path class="cls-3" d="M307.44,23.4h1.2l11.6,14.58v-14.58h1.2v16.8h-.9l-11.8-14.9v14.9h-1.2v-16.8h-.1Z"/>
      <path class="cls-3" d="M331.14,24.6h-5.9v-1.2h13v1.2h-5.89v15.6h-1.2v-15.6h0Z"/>
      <path class="cls-3" d="M346.35,23.3h1.2l7.8,16.9h-1.4l-2.1-4.7h-9.9l-2.1,4.7h-1.3l7.8-16.9ZM351.35,34.4l-4.4-9.7-4.4,9.7h8.8Z"/>
      <path class="cls-3" d="M359.04,23.4h1.2v15.58h9.9v1.2h-11.1v-16.78Z"/>
      <path class="cls-3" d="M381.35,23.4h1.2v7.8h10.8v-7.8h1.2v16.8h-1.2v-7.9h-10.8v7.9h-1.2s0-16.8,0-16.8Z"/>
      <path class="cls-3" d="M399.74,23.4h12v1.2h-10.8v6.6h9.6v1.2h-9.6v6.7h10.8v1.1h-12.1v-16.8s.1,0,.1,0Z"/>
      <path class="cls-3" d="M422.35,23.3h1.2l7.8,16.9h-1.4l-2.1-4.7h-9.9l-2.1,4.7h-1.3l7.8-16.9ZM427.35,34.4l-4.4-9.7-4.4,9.7h8.8Z"/>
      <path class="cls-3" d="M435.04,23.4h1.2v15.58h9.9v1.2h-11.1v-16.78Z"/>
      <path class="cls-3" d="M452.24,24.6h-5.89v-1.2h13v1.2h-5.9v15.6h-1.2v-15.6h0Z"/>
      <path class="cls-3" d="M463.24,23.4h1.2v7.8h10.8v-7.8h1.2v16.8h-1.2v-7.9h-10.8v7.9h-1.2s0-16.8,0-16.8Z"/>
    </g>
  </g>
  <path class="cls-3" d="M0,44.53h49.15l-5.27-9.32H5.26S0,44.53,0,44.53ZM11.53,24.53l-4.8,8.31h35.84l-4.65-8.31s-26.39,0-26.39,0ZM17.72,13.81l-4.8,8.31h23.61l-4.49-8.31h-14.32ZM24.84,1.26l-5.65,10h11.38S24.84,1.26,24.84,1.26Z"/>
  <path class="cls-3" d="M54.19,42.77c0,1.1-.9,2-2,2s-2-.9-2-2,.9-2,2-2,2,.9,2,2ZM50.65,42.77c-.02.85.65,1.56,1.5,1.58h.04c.83,0,1.5-.68,1.49-1.51v-.05c.14-.83-.43-1.61-1.25-1.75-.83-.14-1.61.43-1.75,1.25-.03.16-.03.33,0,.49l-.03-.02h0ZM51.86,43.77h-.45v-2c.25-.04.5-.06.75-.06.23-.02.47.03.67.15.22.15.28.46.13.68-.08.11-.2.19-.33.21h0c.19.06.29.21.35.47.03.17.07.33.14.48h-.48c-.08-.15-.13-.31-.15-.48,0-.2-.16-.3-.41-.3h-.22v.85h0ZM51.86,42.67h.22c.25,0,.46-.08.46-.29s-.14-.3-.42-.3h-.26v.59Z"/>
  <path class="cls-3" d="M206.47,42.77c0,1.1-.9,2-2,2s-2-.9-2-2,.9-2,2-2,2,.9,2,2ZM202.93,42.77c-.02.85.65,1.56,1.5,1.58h.04c.83,0,1.5-.68,1.49-1.51v-.05c.14-.83-.43-1.61-1.25-1.75-.83-.14-1.61.43-1.75,1.25-.03.16-.03.33,0,.49l-.03-.02h0ZM204.14,43.77h-.45v-2c.25-.04.5-.06.75-.06.23-.02.47.03.67.15.22.15.28.46.13.68-.08.11-.2.19-.33.21h0c.19.06.29.21.35.47.03.17.07.33.14.48h-.48c-.08-.15-.13-.31-.15-.48,0-.2-.16-.3-.41-.3h-.22v.85h0ZM204.14,42.67h.22c.25,0,.46-.08.46-.29s-.14-.3-.42-.3h-.26v.59h0Z"/>
</svg>